<svg xmlns="http://www.w3.org/2000/svg" viewBox="0 0 717.45 432.82"><defs><style>.cls-1,.cls-2{fill:none;stroke:#f48c00;stroke-miterlimit:10;}.cls-1{stroke-width:4px;}.cls-2{stroke-width:3px;}.cls-3,.cls-4{fill:#f48c00;}.cls-4{font-size:126px;font-family:RemachineScriptPersonalUse, Remachine Script Personal Use;}</style></defs><g id="Layer_2" data-name="Layer 2"><g id="Layer_1-2" data-name="Layer 1"><path class="cls-1" d="M138.82,12.32c1.67,6.59-1.49,11.24-10.18,11.16-2.26,2.24-4.25,4.66-5,7.88-.67,2.92.44,4.22,3.32,3.2s6.17-1.55,8.3-4.09a2.62,2.62,0,0,1,1.47,3.12C134,39.1,135.05,45.66,131.87,51"/><path class="cls-1" d="M123.22,34.75a13.81,13.81,0,0,0-5.39,8.41c-.38,1.62,0,1.84,1.74,2.24,5.24,1.24,9.29-1.82,13.82-3.16"/><path class="cls-2" d="M133.87,14.13c.53-4.43,3.19-7.68,5.79-11.22,2.46,5.14.41,10.2-4.32,11.47-5,1.35-5.62,2.16-6.31,8.56"/><path class="cls-1" d="M137.47,22.14c1.77,2.82.4,5.09-1.27,7.32"/><polygon class="cls-3" points="135.06 116.35 135.92 114.98 136.91 113.72 138.04 112.58 139.29 111.56 138.82 113.16 138.47 114.79 138.23 116.44 138.11 118.11 138.11 119.77 138.22 121.44 138.31 122.22 138.43 122.99 138.56 123.77 138.72 124.53 138.89 125.3 139.09 126.06 139.31 126.81 139.55 127.56 139.81 128.3 140.09 129.03 140.38 129.76 140.7 130.48 141.5 132.52 142.34 134.57 143.22 136.58 144.14 138.58 145.1 140.56 146.11 142.52 147.16 144.46 148.25 146.37 149.39 148.26 152.84 153.74 155.05 157.41 157.19 161.14 159.25 164.9 161.22 168.7 163.13 172.54 164.96 176.41 166.71 180.33 168.38 184.27 169.96 188.25 171.47 192.27 172.9 196.31 175.12 203.24 177.1 210.24 178.84 217.31 180.32 224.43 181.56 231.61 182.54 238.81 183.26 246.05 183.73 253.31 183.95 260.59 183.91 267.87 183.61 275.13 183.06 282.39 181.87 291.49 180.01 300.48 177.49 309.3 174.33 317.91 170.55 326.27 166.15 334.33 161.18 342.04 155.66 349.36 149.61 356.27 143.07 362.71 136.07 368.64 141.3 362.33 146.22 355.76 150.8 348.95 155.03 341.92 158.9 334.69 162.41 327.28 165.55 319.7 168.3 311.97 170.67 304.12 172.63 296.15 174.2 288.1 175.36 279.98 176.08 272.58 176.5 265.14 176.63 257.7 176.45 250.26 175.98 242.83 175.21 235.42 174.13 228.06 172.78 220.75 171.12 213.49 169.88 207.8 168.43 202.17 166.78 196.59 164.94 191.06 162.9 185.61 160.67 180.24 158.25 174.95 155.64 169.74 152.85 164.63 149.88 159.63 146.73 154.74 143.42 149.95 142.16 148.14 140.98 146.28 139.87 144.36 138.83 142.42 137.88 140.43 136.99 138.41 136.19 136.34 135.47 134.26 134.84 132.15 134.28 130.01 133.81 127.85 133.42 125.68 133.26 124.08 133.27 122.47 133.47 120.87 133.83 119.31 134.37 117.79 135.06 116.35"/><path class="cls-3" d="M127.68,108.09l-2.06,1.55-2,1.7-1.82,1.82-1.2,1.37-.5.57-1.55,2.07-3,4.74-2.47,5-2,5.25-1.4,5.43-.83,5.53-.27,5.6.31,5.59.87,5.54,1.44,5.41,1.79,6,1.58,6,1.36,6.1,1.13,6.15.89,6.19.68,6.21.44,6.24.22,6.24,0,6.25-.24,6.24-.48,6.23-.68,6.65-.78,6.63-.89,6.62-1,6.61-1.08,6.59-1.19,6.58-1.28,6.55-1.39,6.53-1.49,6.51-1.58,6.48-1.69,6.48-1.78,6.43-.87,2.78-1,2.74L100.84,320l-1.27,2.63-1.41,2.55-1.52,2.48L95,330.1l-1.76,2.32-1.88,2.22-2,2.14-.88.74-1,.54-1.09.33-1.14.12-1.13-.12L83,338.06l-1-.54-.88-.74-.71-.89-.52-1-1.3-3.49-1.14-3.54-1-3.59-.82-3.63L75,317l-.51-3.68-.35-3.72L74,305.84l0-3.73.13-3.71.31-3.71.47-3.71L74,293.44l-.76,2.49-.7,2.49-.65,2.51-.59,2.52L70.79,306l-.48,2.55-.44,2.55-.38,2.56-.32,2.57-.28,2.58-.86,7-1.26,6.93-1.64,6.85-2,6.73-2.41,6.62-2.78,6.48-3.14,6.3-3.49,6.11-3.84,5.91-4.16,5.69-4.47,5.44L34,394l-1.92,1.85-2,1.69-2.16,1.58-2.25,1.42-2.34,1.27-2.42,1.11-2.49.94-2.55.78-2.59.6-2.62.43L8,405.93,5.32,406l-.64,0-.63-.12-.61-.2-.58-.27L2.31,405l-.5-.4-.53-.56-.44-.62-.36-.69-.27-.72-.16-.75,0-.77.05-.77L.21,399l.27-.71.36-.69.44-.63.53-.55,1.08-1,1-1.06,1-1.11.94-1.15.89-1.19,4.74-6.9,4.34-7.17,3.94-7.4,3.5-7.62L26.34,354,29,346.06l2.18-8.1,1.71-8.2,1.25-8.28.79-8.35.31-8.37-.16-8.38-.56-14.29-.29-14.3,0-14.3.21-14.29.47-14.29.73-14.29,1-14.26,1.25-14.25,1.49-14.22,1.76-14.2,2-14.15,2.26-14.12,1.36-6.8,1.76-6.71,2.15-6.6,2.53-6.46L56,92.56l3.28-6.12,3.63-5.91,4-5.69,4.29-5.45,4.62-5.18,4.91-4.9,5.18-4.61,5.51-4,6-3.13,6.41-2.21,6.67-1.26,6.78-.28,6.76.71,6.57,1.68,6.26,2.63,5.81,3.5,5.25,4.3,4.56,5,3.79,5.64.76,1.27.83,1.23.88,1.18,1,1.15,1,1.09,1,1,1.1,1,1.15.94,1.19.88,1.24.82,1.27.76,1.31.69,2.37,1.21,2.36,1.23,2.35,1.26,2.32,1.28,2.32,1.3L183,87l2.29,1.36,2.27,1.38,2.26,1.41,2.25,1.43L194.33,94l2.21,1.48.64.46.63.48.59.52.56.55.55.57.5.6.48.62.46.65.41.67.38.69.35.7.32.72-5.5-.59-5.52-.49-5.52-.38-5.52-.28-5.53-.18-5.54-.07-5.53,0-5.52.14-5.53.24-5.52.35-2.76.23-2.55.38-2.53.57-2.47.75-2.41.91-2.34,1.09-2.26,1.24Zm7.6-30.74,1.37-.17,1.29-.54,1.1-.84.85-1.12.53-1.28L140.6,72l-.18-1.38-.53-1.28-.85-1.1-1.1-.85-1.29-.53-1.37-.18-1.4.18-1.28.53,1.2.16,1.11.46,1,.73.75.95.45,1.12.16,1.19-.16,1.2-.45,1.12-.75.94-1,.74-1.11.47-1.2.15,1.28.54Z"/><text class="cls-4" transform="translate(190.41 382.29)">Penguin Party</text></g></g></svg>